# xmcd
# 
# Track frame offsets:
#     150
#     12604
#     27248
#     39555
#     53048
#     63494
#     72883
#     90589
#     105210
#     124354
#     141751
#     154537
#     166983
#     174600
#     184675
#     195219
#     208364
#     221622
#     239486
#     262239
# 
# Disc length: 3635
# 
# Revision: 1
# Processed by: cddbd v1.5.2PL0 Copyright (c) Steve Scherf et al.
# Submitted via: fre:ac v1.0.17
# 
DISCID=210e3114
DTITLE=Various Artist - Country Hits [CD3]
DYEAR=0
DGENRE=Country
TTITLE0=Nilsson - Everybody's Talkin'
TTITLE1=Glen Campbell - Rhinestone Cowboy
TTITLE2=Ray Stevens - Misty
TTITLE3=Ricky Scaggs - Cry, Cry Darlin'
TTITLE4=The Everly Brothers - Bye Bye Love
TTITLE5=The Byrds - Ballad Of Easy Rider
TTITLE6=Billy Swan - I Can Help
TTITLE7=Jeannie C. Riley - Harper Valley P.T.A.
TTITLE8=Bobby Gentry - Ode To Billy Joe
TTITLE9=Billy Jo Spears - Blanket On the Ground
TTITLE10=Johnny Cash - Folsom Prison Blues
TTITLE11=Johnny Cash and June Carter - Jackson
TTITLE12=Faron Young - Your Cheatin' Heart
TTITLE13=Conway Twitty - It's Only Make Believe
TTITLE14=Jim Re - He'll Have To Go
TTITLE15=Hank Williams - Jambalaya (On the Bayou)
TTITLE16=Jerry Lee Lewis - You Win Again
TTITLE17=Bobby Goldsboro - Honey
TTITLE18=Wynonna Judd - I Want To Know What Love Is
TTITLE19=Hoyt Axton - Heartbreak Hotel
EXTD=
EXTT0=
EXTT1=
EXTT2=
EXTT3=
EXTT4=
EXTT5=
EXTT6=
EXTT7=
EXTT8=
EXTT9=
EXTT10=
EXTT11=
EXTT12=
EXTT13=
EXTT14=
EXTT15=
EXTT16=
EXTT17=
EXTT18=
EXTT19=
PLAYORDER=
